<?xml version="1.0" encoding="UTF-8" standalone="no"?>
<!-- Created with Inkscape (http://www.inkscape.org/) -->

<svg
   xmlns:dc="http://purl.org/dc/elements/1.1/"
   xmlns:cc="http://creativecommons.org/ns#"
   xmlns:rdf="http://www.w3.org/1999/02/22-rdf-syntax-ns#"
   xmlns:svg="http://www.w3.org/2000/svg"
   xmlns="http://www.w3.org/2000/svg"
   xmlns:sodipodi="http://sodipodi.sourceforge.net/DTD/sodipodi-0.dtd"
   xmlns:inkscape="http://www.inkscape.org/namespaces/inkscape"
   width="210mm"
   height="297mm"
   viewBox="0 0 210 297"
   version="1.1"
   id="svg7033"
   inkscape:version="0.92.4 (5da689c313, 2019-01-14)"
   sodipodi:docname="complejo.svg">
  <defs
     id="defs7027" />
  <sodipodi:namedview
     id="base"
     pagecolor="#ffffff"
     bordercolor="#666666"
     borderopacity="1.0"
     inkscape:pageopacity="0.0"
     inkscape:pageshadow="2"
     inkscape:zoom="0.35"
     inkscape:cx="394.34621"
     inkscape:cy="560"
     inkscape:document-units="mm"
     inkscape:current-layer="layer1"
     showgrid="false"
     inkscape:window-width="716"
     inkscape:window-height="696"
     inkscape:window-x="712"
     inkscape:window-y="0"
     inkscape:window-maximized="0" />
  <metadata
     id="metadata7030">
    <rdf:RDF>
      <cc:Work
         rdf:about="">
        <dc:format>image/svg+xml</dc:format>
        <dc:type
           rdf:resource="http://purl.org/dc/dcmitype/StillImage" />
        <dc:title></dc:title>
      </cc:Work>
    </rdf:RDF>
  </metadata>
  <g
     inkscape:label="Layer 1"
     inkscape:groupmode="layer"
     id="layer1">
    <rect
       style="opacity:1;fill:#000000;fill-opacity:0.84422111;fill-rule:nonzero;stroke:none;stroke-width:0.26499999;stroke-miterlimit:0;stroke-dasharray:none;stroke-opacity:1"
       id="rect7037"
       width="6.8035712"
       height="284.2381"
       x="100.69289"
       y="8.2261906" />
    <path
       inkscape:connector-curvature="0"
       d="m 175.28894,83.397701 c -0.38284,-0.74871 -1.38892,-0.83524 -2.11267,-0.83524 -2.50749,0 -7.4151,1.28453 -14.84294,3.22894 l -2.42651,0.6342 c -11.27703,2.94176 -22.07666,11.26434 -26.68842,14.818069 -0.0603,0.046 -0.12012,0.0923 -0.17868,0.13801 4.20592,-5.491549 15.33495,-22.441679 14.40934,-24.408919 -0.10294,-0.2185 -0.30483,-0.34444 -0.55285,-0.34444 -1.01558,0 -2.14478,1.11604 -4.19529,3.14212 -2.92049,2.88597 -7.80879,7.71648 -16.62359,13.52152 -5.6576,3.7256 -11.76131,9.050989 -17.14601,13.749299 -6.912859,6.0318 -13.442856,11.72898 -16.527221,11.72898 -0.578438,0 -1.007352,-0.20675 -1.311395,-0.63224 -4.004853,-5.60684 -8.123882,-8.62393 -12.242142,-8.96707 -0.872851,-0.0716 -1.774883,-0.14799 -2.692308,-0.14799 -3.453736,0 -7.359819,0.9523 -12.509267,7.85976 -1.144974,1.53586 -12.240983,2.80274 -20.342587,3.72777 -4.30196,0.49105 -8.017815,0.9155 -9.991798,1.31985 -1.076167,0.22065 -1.550056,0.3368 -1.50508,0.78213 0.044,0.43084 0.4562,0.46695 1.719533,0.46695 1.529701,0 4.283914,-0.1165 7.473207,-0.25137 4.867316,-0.20553 10.924599,-0.46197 16.054445,-0.46197 5.519548,0 8.902196,0.30301 10.053313,0.89941 4.456458,2.31094 11.00915,10.90489 16.692828,21.8937 5.516118,10.66293 19.625389,21.95975 28.555302,24.93671 6.83096,2.27699 7.91057,8.33567 9.54435,17.50693 0.41669,2.33763 0.88909,4.98678 1.5001,7.76643 2.05007,9.31844 3.20156,10.57502 4.05761,10.57502 0.73857,0 1.21337,-0.94594 1.54001,-3.06687 0.0454,-0.29745 0.0824,-0.5789 0.1109,-0.84327 3.07212,10.70362 4.681,12.08305 5.73985,12.08305 0.22605,0 0.4277,-0.0988 0.56803,-0.27865 0.62951,-0.80789 0.002,-3.45949 -1.07005,-7.71953 -0.56066,-2.22467 -1.31019,-5.19978 -1.20638,-6.06726 0.85138,0.82245 3.14737,5.07835 4.85734,8.24771 3.88937,7.21023 5.24356,9.45517 6.13298,9.45517 0.10282,0 0.20174,-0.0269 0.28823,-0.0791 0.93204,-0.55953 0.044,-3.10476 -2.53934,-9.70119 -1.35976,-3.4726 -2.76525,-7.06163 -2.91836,-8.61288 0.78514,0.58466 2.72394,3.08297 4.17859,4.95807 3.01609,3.88649 4.41917,5.58994 5.2025,5.58962 0.17184,0 0.32632,-0.07 0.43463,-0.19846 0.17264,-0.20366 0.21225,-0.52295 0.12719,-1.0358 -0.35062,-2.12487 -3.20004,-8.62005 -6.21761,-15.4967 -2.58698,-5.89614 -5.26209,-11.9934 -5.89548,-14.39789 -1.39027,-5.28351 -9.50164,-25.29878 -11.95383,-30.2028 -1.63053,-3.26104 4.37228,-7.00215 8.75488,-9.73404 1.92413,-1.19925 3.58559,-2.23505 4.44434,-3.09333 1.38428,-1.38435 2.92045,-2.06697 4.54713,-2.79001 1.61918,-0.71933 3.29306,-1.46357 4.77846,-2.94854 1.99472,-1.99513 2.33076,-3.67397 2.65554,-5.29754 0.1598,-0.79968 0.31083,-1.55496 0.65396,-2.35464 0.44987,-1.04965 1.96604,-1.65446 3.57184,-2.29431 1.88146,-0.7498 4.01373,-1.59998 5.01908,-3.40949 0.70621,-1.27061 1.13123,-2.77082 1.54286,-4.22161 0.60888,-2.14806 1.18411,-4.17746 2.53098,-4.56265 2.5852,-0.73861 6.66372,-3.30838 7.43546,-5.8158 l 0.12883,-0.42169 c 0.75098,-2.472829 2.50936,-8.263349 6.87705,-14.310249 1.46366,-2.02819 1.9157,-3.23202 1.50969,-4.02532 z"
       id="path7147"
       style="stroke-width:0.384345" />
  </g>
</svg>
