<?xml version="1.0" encoding="UTF-8" standalone="no"?>
<!-- Created with Inkscape (http://www.inkscape.org/) -->

<svg
   xmlns:dc="http://purl.org/dc/elements/1.1/"
   xmlns:cc="http://creativecommons.org/ns#"
   xmlns:rdf="http://www.w3.org/1999/02/22-rdf-syntax-ns#"
   xmlns:svg="http://www.w3.org/2000/svg"
   xmlns="http://www.w3.org/2000/svg"
   xmlns:sodipodi="http://sodipodi.sourceforge.net/DTD/sodipodi-0.dtd"
   xmlns:inkscape="http://www.inkscape.org/namespaces/inkscape"
   width="210mm"
   height="297mm"
   viewBox="0 0 210 297"
   version="1.1"
   id="svg8"
   inkscape:version="0.92.4 (5da689c313, 2019-01-14)"
   sodipodi:docname="drawing.svg">
  <defs
     id="defs2" />
  <sodipodi:namedview
     id="base"
     pagecolor="#ffffff"
     bordercolor="#666666"
     borderopacity="1.0"
     inkscape:pageopacity="0.0"
     inkscape:pageshadow="2"
     inkscape:zoom="0.49497475"
     inkscape:cx="390.64732"
     inkscape:cy="613.2585"
     inkscape:document-units="mm"
     inkscape:current-layer="layer1"
     showgrid="false"
     inkscape:window-width="1366"
     inkscape:window-height="705"
     inkscape:window-x="-8"
     inkscape:window-y="-8"
     inkscape:window-maximized="1" />
  <metadata
     id="metadata5">
    <rdf:RDF>
      <cc:Work
         rdf:about="">
        <dc:format>image/svg+xml</dc:format>
        <dc:type
           rdf:resource="http://purl.org/dc/dcmitype/StillImage" />
        <dc:title></dc:title>
      </cc:Work>
    </rdf:RDF>
  </metadata>
  <g
     inkscape:label="Layer 1"
     inkscape:groupmode="layer"
     id="layer1">
    <g
       transform="matrix(0.42926059,0,0,0.42926059,117.43864,51.417111)"
       id="g1216"
       style="opacity:0.556;fill:#aade87;stroke-width:0.15039427;stroke-miterlimit:4;stroke-dasharray:none">
      <g
         id="g1214"
         style="fill:#aade87;stroke-width:0.15039427;stroke-miterlimit:4;stroke-dasharray:none">
        <path
           inkscape:connector-curvature="0"
           d="M 47.074,4.459 C 42.953,0.338 35.207,0.338 27.86,4.116 c -0.266,3.601 1.084,7.454 4.011,10.381 2.299,2.298 5.169,3.619 8.041,3.958 5.59,-6.747 8.53,-12.629 7.162,-13.996 z M 39.309,7.06 c -0.633,0.633 -1.658,0.633 -2.29,0.002 -0.634,-0.633 -0.634,-1.659 0,-2.292 0.632,-0.633 1.657,-0.633 2.291,0 0.631,0.633 0.631,1.659 -0.001,2.29 z"
           id="path1210"
           style="fill:#aade87;stroke-width:0.15039427;stroke-miterlimit:4;stroke-dasharray:none" />
        <path
           inkscape:connector-curvature="0"
           d="M 25.196,5.666 C 24.654,6.02 24.117,6.395 23.586,6.791 L 22.326,6.127 C 21.227,5.552 19.876,5.751 18.998,6.628 l -8.862,8.862 c -0.639,0.639 -0.928,1.547 -0.792,2.44 0.137,0.891 0.692,1.668 1.491,2.087 l 2.01,1.053 C 10.831,25.766 9.738,30.367 9.44,33.281 l -8.75,3.01 c -0.395,0.135 -0.667,0.495 -0.689,0.911 -0.022,0.417 0.209,0.806 0.586,0.982 l 3.816,1.797 c 0.747,0.352 1.346,0.952 1.698,1.698 l 1.797,3.815 c 0.177,0.376 0.566,0.608 0.981,0.586 0.417,-0.022 0.777,-0.296 0.913,-0.688 l 3.013,-8.764 c 4.108,-0.677 11.234,-3.817 17.423,-8.546 l 0.693,2.14 c 0.125,0.387 0.439,0.677 0.835,0.772 0.396,0.096 0.809,-0.025 1.098,-0.312 l 0.741,-0.742 c 0.57,-0.571 0.921,-1.327 0.977,-2.133 l 0.262,-3.762 c 1.081,-1.089 2.106,-2.179 3.074,-3.26 -2.855,-0.662 -5.621,-2.139 -7.904,-4.422 -3.023,-3.024 -4.64,-6.894 -4.808,-10.697 z"
           id="path1212"
           style="fill:#aade87;stroke-width:0.15039427;stroke-miterlimit:4;stroke-dasharray:none" />
      </g>
    </g>
    <circle
       style="fill:#93ac9d;stroke-width:0.26458332"
       id="path14-71"
       cx="51"
       cy="65"
       r="4" />
    <circle
       style="fill:#164450;stroke-width:0.26458332"
       id="path14-39"
       cx="58"
       cy="91"
       r="4" />
    <g
       transform="matrix(0,-0.11539731,0.11539731,0,43.022362,98.897241)"
       id="g1023">
      <path
         inkscape:connector-curvature="0"
         id="path138"
         d="m 350.58,7.102 c 0.099,-4.019 3.437,-7.198 7.456,-7.099 4.019,0.099 7.198,3.437 7.099,7.456 -0.007,0.296 -0.033,0.59 -0.076,0.883 0,0.36 -6.36,84 -88,168.64 l -0.76,0.8 c -19.18,19.673 -40.226,37.436 -62.84,53.04 l 49.04,9.12 c 3.909,0.943 6.313,4.876 5.37,8.784 -0.854,3.538 -4.189,5.902 -7.81,5.536 l -64,-12 c -58.36,36.96 -157.28,71.08 -165.92,151.6 -0.535,3.985 -4.199,6.782 -8.184,6.247 -3.793,-0.509 -6.544,-3.868 -6.296,-7.687 10.32,-96.52 108.4,-121.36 174.56,-163.56 l 0.92,-0.6 c 26.403,-16.71 50.861,-36.311 72.92,-58.44 l -5.8,-57.4 c -0.535,-3.985 2.262,-7.649 6.247,-8.184 3.985,-0.535 7.649,2.262 8.184,6.247 0.022,0.165 0.039,0.331 0.049,0.497 l 4.4,44.56 C 345.18,79.142 350.54,7.422 350.58,7.102 Z"
         style="opacity:0.125;fill:#005649;fill-opacity:1" />
      <path
         inkscape:connector-curvature="0"
         id="path136"
         d="m 201.38,88.422 c 113.12,-12.44 149.88,-84 150,-84 1.856,-3.567 6.252,-4.953 9.819,-3.097 1.799,0.936 3.126,2.581 3.661,4.537 37.6,127.52 17.08,215.44 -26.08,267.6 -10.01898,12.19079 -21.72492,22.81183 -34.72049,31.56669 -8.67759,5.84593 -17.93019,10.85978 -27.63951,14.95331 -22.339,9.474 -46.587,13.584 -70.8,12 -46.36,-3.24 -88.68,-28 -108.32,-72.36 -5.032,-11.34 -8.284,-23.388 -9.64,-35.72 -2.743,-24.717 2.083,-49.685 13.84,-71.6 12.622,-23.385 32.719,-41.863 57.08,-52.48 13.593,-5.989 28.031,-9.834 42.8,-11.4 z"
         style="opacity:0.11799999;fill:#a9b5ac;fill-opacity:1"
         sodipodi:nodetypes="cccccsccccccc" />
    </g>
    <circle
       style="fill:#162d50;stroke-width:0.26458332"
       id="path14-56"
       cx="71"
       cy="91"
       r="4" />
    <circle
       style="fill:#008066;stroke-width:0.26458332"
       id="path14-1"
       cx="45"
       cy="91"
       r="4" />
    <circle
       style="fill:#2c89a0;stroke-width:0.26458332"
       id="path14-5"
       cx="61"
       cy="78"
       r="4" />
    <circle
       style="fill:#00aa88;stroke-width:0.26458332"
       id="path14-69"
       cx="48"
       cy="78"
       r="4" />
    <path
       inkscape:connector-curvature="0"
       d="m 99.43258,50.302559 c -0.07458,-0.145825 -0.270546,-0.16267 -0.411508,-0.16267 -0.48838,0 -1.444272,0.250177 -2.891018,0.628896 l -0.472595,0.123519 c -2.196478,0.572983 -4.29997,2.194002 -5.198217,2.886162 -0.01165,0.0091 -0.02337,0.01793 -0.03479,0.02678 0.819196,-1.0696 2.986846,-4.371008 2.806582,-4.754219 -0.02004,-0.04258 -0.05938,-0.06709 -0.107725,-0.06709 -0.197782,0 -0.417719,0.217395 -0.817094,0.611982 -0.568869,0.562129 -1.520941,1.502969 -3.237856,2.633656 -1.101944,0.725623 -2.290797,1.762881 -3.33959,2.677973 -1.346433,1.174853 -2.618308,2.284505 -3.219059,2.284505 -0.112664,0 -0.196208,-0.04024 -0.255418,-0.123141 -0.780046,-1.092058 -1.582322,-1.679715 -2.384447,-1.746565 -0.170007,-0.01414 -0.34571,-0.02882 -0.5244,-0.02882 -0.672691,0 -1.433494,0.185505 -2.436472,1.530887 -0.223007,0.299146 -2.384227,0.545882 -3.9622,0.72607 -0.83791,0.09568 -1.561657,0.17832 -1.94614,0.257068 -0.209611,0.04296 -0.301914,0.06558 -0.293155,0.152345 0.0085,0.08391 0.08886,0.09096 0.334923,0.09096 0.297944,0 0.834393,-0.02269 1.455589,-0.04894 0.948025,-0.04009 2.127817,-0.08998 3.126983,-0.08998 1.075062,0 1.733911,0.059 1.958113,0.175173 0.868007,0.45013 2.1443,2.124006 3.251334,4.264334 1.074389,2.076844 3.822502,4.277132 5.561806,4.856998 1.330488,0.443474 1.540773,1.623568 1.859003,3.409882 0.08115,0.455304 0.173154,0.971308 0.29218,1.512704 0.3993,1.814981 0.623585,2.059697 0.790295,2.059697 0.143881,0 0.236335,-0.184228 0.29997,-0.597309 0.0089,-0.05794 0.01596,-0.112741 0.02156,-0.164243 0.598353,2.084779 0.911719,2.353457 1.117965,2.353457 0.04402,0 0.08332,-0.01921 0.110637,-0.05431 0.122627,-0.15736 5.68e-4,-0.673818 -0.208409,-1.503574 -0.109223,-0.433285 -0.255199,-1.01278 -0.234988,-1.181736 0.165816,0.160197 0.613034,0.989128 0.946089,1.606421 0.757581,1.40438 1.021312,1.841636 1.194542,1.841636 0.01997,0 0.03933,-0.0053 0.05612,-0.01543 0.181534,-0.108997 0.0085,-0.604722 -0.494606,-1.889547 -0.264851,-0.676359 -0.53862,-1.375403 -0.568414,-1.677536 0.152943,0.113859 0.530534,0.600447 0.813879,0.965695 0.58743,0.756983 0.860746,1.088767 1.01331,1.088692 0.03343,0 0.06354,-0.01377 0.08466,-0.03865 0.03358,-0.03963 0.0413,-0.101886 0.02481,-0.201753 -0.0683,-0.413898 -0.623283,-1.678959 -1.211009,-3.018357 -0.503886,-1.148432 -1.024913,-2.336015 -1.14828,-2.804336 -0.270774,-1.029104 -1.850698,-4.927517 -2.3283,-5.882736 -0.317557,-0.635113 0.851608,-1.3638 1.705236,-1.895908 0.374747,-0.233566 0.69837,-0.435311 0.865609,-0.602474 0.269646,-0.269647 0.568861,-0.402598 0.885668,-0.543409 0.315386,-0.140144 0.641407,-0.285069 0.930735,-0.574329 0.388529,-0.388597 0.453957,-0.715586 0.517214,-1.031796 0.03116,-0.155787 0.06059,-0.302883 0.127331,-0.45867 0.08767,-0.204445 0.382985,-0.3222 0.695754,-0.446839 0.366442,-0.146052 0.781772,-0.311642 0.977602,-0.664083 0.13752,-0.247492 0.220315,-0.539672 0.300485,-0.822268 0.11858,-0.418391 0.230647,-0.813652 0.492957,-0.888664 0.503508,-0.143881 1.297925,-0.644394 1.448244,-1.132782 l 0.02504,-0.08212 c 0.146279,-0.481657 0.488759,-1.6095 1.339474,-2.787272 0.285062,-0.395034 0.373099,-0.629501 0.294048,-0.784009 z"
       id="path1085"
       style="opacity:0.264;fill:#2c89a0;stroke-width:0.07486016" />
    <circle
       style="fill:#5fbcd3;stroke-width:0.26458332"
       id="path14"
       cx="64"
       cy="65"
       r="4" />
    <circle
       style="fill:#5f8dd3;stroke-width:0.26458332"
       id="path14-3"
       cx="74"
       cy="78"
       r="4" />
    <text
       xml:space="preserve"
       style="font-style:normal;font-weight:normal;font-size:10.58333302px;line-height:1.25;font-family:sans-serif;letter-spacing:0px;word-spacing:0px;fill:#241c22;fill-opacity:1;stroke:none;stroke-width:0.26458332"
       x="77.711929"
       y="97.504166"
       id="text12"><tspan
         sodipodi:role="line"
         id="tspan10"
         x="77.711929"
         y="97.504166"
         style="font-style:italic;font-variant:normal;font-weight:normal;font-stretch:normal;font-size:50.79999924px;line-height:0;font-family:sans-serif;-inkscape-font-specification:'sans-serif Italic';fill:#241c22;stroke-width:0.26458332;letter-spacing:-2.04787518px">GE</tspan></text>
    <circle
       style="fill:#afc6e9;stroke-width:0.26458332"
       id="path14-7"
       cx="77"
       cy="65"
       r="4" />
    <ellipse
       style="opacity:0.811;fill:#1c241f;stroke-width:0.26458332"
       id="path1859"
       cx="95.722466"
       cy="100.54688"
       rx="53.389137"
       ry="0.47247022" />
    <path
       style="opacity:1;fill:#241c22;fill-opacity:1;stroke:#241c22;stroke-width:0.29240611;stroke-opacity:1"
       id="path1897"
       d="m 122.46672,79.009464 c -0.54698,-0.03765 -1.09458,-0.03132 -1.64181,-0.0277 -0.48517,0.0051 -0.97034,0.0099 -1.45553,0.01244 -0.41295,0.0017 -0.8259,0.0017 -1.23886,0.0021 -0.40824,2e-5 -0.81647,-4.2e-5 -1.22472,-7.1e-5 -0.45759,-0.0052 -0.91518,-0.0059 -1.37277,-0.0042 -0.0602,0.0031 -0.12055,0.0059 -0.18082,0.009 0,0 2.445,-3.702502 2.445,-3.702502 v 0 c 0.0563,0.0031 0.11266,0.0061 0.16898,0.009 0.45943,0.0017 0.91883,0.0012 1.37824,-0.0042 0.40827,-3e-5 0.81654,-8.9e-5 1.22482,-7.1e-5 0.4121,8e-5 0.82421,1.44e-4 1.23632,0.0021 0.47972,0.0025 0.95943,0.0072 1.43914,0.01244 0.55943,0.0039 1.11917,0.009 1.67837,-0.0277 0,0 -2.45636,3.719698 -2.45636,3.719698 z"
       inkscape:connector-curvature="0" />
    <text
       xml:space="preserve"
       style="font-style:normal;font-weight:normal;font-size:5.64444447px;line-height:1.25;font-family:sans-serif;letter-spacing:0px;word-spacing:0px;fill:#000000;fill-opacity:1;stroke:none;stroke-width:0.26458332"
       x="50.573219"
       y="108.08749"
       id="text1901"><tspan
         sodipodi:role="line"
         id="tspan1899"
         x="50.573219"
         y="108.08749"
         style="font-style:italic;font-variant:normal;font-weight:normal;font-stretch:normal;font-size:6.3499999px;font-family:'Tw Cen MT';-inkscape-font-specification:'Tw Cen MT, Italic';font-variant-ligatures:normal;font-variant-caps:normal;font-variant-numeric:normal;font-feature-settings:normal;text-align:start;writing-mode:lr-tb;text-anchor:start;stroke-width:0.26458332">Laboratorio de genómica evolutiva</tspan></text>
  </g>
</svg>
